<?xml version="1.0" encoding="UTF-8"?>
<svg width="48px" height="32px" viewBox="0 0 48 32" version="1.1" xmlns="http://www.w3.org/2000/svg" xmlns:xlink="http://www.w3.org/1999/xlink">
    <title>5A2A2E1E-5B7D-4A43-A6E5-C5C4DA8E5DAB@1.00x</title>
    <defs>
        <rect id="path-1" x="0" y="0" width="48" height="32"></rect>
    </defs>
    <g id="Molecules" stroke="none" stroke-width="1" fill="none" fill-rule="evenodd">
        <g id="ui/icon/my-zone/piguEurai">
            <mask id="mask-2" fill="white">
                <use xlink:href="#path-1"></use>
            </mask>
            <use id="Rectangle" fill-opacity="0" fill="#FFFFFF" xlink:href="#path-1"></use>
            <g id="ui/icon/my-zone/piguEurai-Copy" mask="url(#mask-2)">
                <g transform="translate(2.000000, 0.000000)" id="Group-6">
                    <path d="M7.34242089,12.4522391 L13.3528285,18.4626468 C13.938615,19.0484332 13.938615,19.9981807 13.3528285,20.5839671 C12.8015001,21.1352955 11.9277702,21.1677266 11.3385122,20.6812604 L11.2315082,20.5839671 L9.0692716,18.422768 C10.19742,24.1668034 15.2599984,28.5 21.3346491,28.5 C25.8742218,28.5 29.9862852,26.0608639 32.1974826,22.1894249 C32.60835,21.4700644 33.5245807,21.2199813 34.2439412,21.6308487 C34.9633017,22.0417161 35.2133847,22.9579468 34.8025174,23.6773073 C32.0625506,28.4745334 26.9620111,31.5 21.3346491,31.5 C13.4746518,31.5 6.98109907,25.6495553 5.97110847,18.0657833 L3.45333359,20.5839671 C2.90200518,21.1352955 2.0282753,21.1677266 1.4390173,20.6812604 L1.33201325,20.5839671 C0.780684834,20.0326387 0.74825375,19.1589088 1.23472,18.5696508 L1.33201325,18.4626468 L7.34242089,12.4522391 Z M21.9420325,9 C24.2917132,9 25.970279,9.66919575 27.0026437,10.9876707 C27.2097395,11.2465857 27.1567977,11.4855842 26.8220188,11.6794385 L26.8220188,11.6794385 L25.6074721,12.3712064 C25.297607,12.5438164 25.0142128,12.5 24.7822032,12.241085 C24.1360021,11.5280728 23.2064068,11.1602807 21.9934172,11.1602807 C20.2105249,11.1602807 19.3074005,12.0034143 19.3074005,13.6671093 L19.3074005,13.6671093 L23.6205983,13.6671093 C23.9569343,13.6671093 24.0861745,13.8171472 24.0332328,14.0986343 L24.0332328,14.0986343 L23.7996661,14.9417678 C23.7498385,15.1794385 23.5941274,15.2869879 23.3107332,15.2869879 L23.3107332,15.2869879 L19.3074005,15.2869879 L19.3074005,16.6267071 L22.8700707,16.6267071 C23.2064068,16.6267071 23.335647,16.7780728 23.2842623,17.0582322 L23.2842623,17.0582322 L23.0522527,17.92261 C22.999311,18.1602807 22.845157,18.2691578 22.5602056,18.2691578 L22.5602056,18.2691578 L19.3074005,18.2691578 L19.3074005,18.3116464 C19.3074005,19.9979135 20.2105249,20.841047 21.9934172,20.841047 C23.2064068,20.841047 24.1360021,20.4719272 24.7822032,19.758915 C25.0142128,19.5 25.297607,19.4575114 25.6074721,19.6287936 L25.6074721,19.6287936 L26.8220188,20.3218892 C27.1567977,20.5144158 27.2097395,20.7534143 27.0026437,21.0123293 C25.970279,22.3308042 24.2917132,23 21.9420325,23 C18.4291898,23 16.3644605,21.3150607 16.3644605,18.3767071 L16.3644605,18.3767071 L16.3644605,18.2691578 L15.5890191,18.2691578 C15.279154,18.2691578 15.125,18.1390364 15.125,17.8801214 L15.125,17.8801214 L15.125,17.0157436 C15.125,16.7555008 15.279154,16.6267071 15.5890191,16.6267071 L15.5890191,16.6267071 L16.3644605,16.6267071 L16.3644605,15.2869879 L15.5890191,15.2869879 C15.279154,15.2869879 15.125,15.1568665 15.125,14.8979514 L15.125,14.8979514 L15.125,14.0561457 C15.125,13.7959029 15.279154,13.6671093 15.5890191,13.6671093 L15.5890191,13.6671093 L16.3644605,13.6671093 L16.3644605,13.6232929 C16.3644605,10.6849393 18.4291898,9 21.9420325,9 Z M21.25,0.5 C29.1099973,0.5 35.60355,6.35044474 36.6135406,13.9342167 L39.1313155,11.4160329 C39.6826439,10.8647045 40.5563738,10.8322734 41.1456318,11.3187396 L41.2526358,11.4160329 C41.8039643,11.9673613 41.8363953,12.8410912 41.3499291,13.4303492 L41.2526358,13.5373532 L35.2422282,19.5477609 L29.2318206,13.5373532 C28.6460341,12.9515668 28.6460341,12.0018193 29.2318206,11.4160329 C29.783149,10.8647045 30.6568789,10.8322734 31.2461369,11.3187396 L31.3531409,11.4160329 L33.5155747,13.5782365 C32.3878193,7.83370175 27.3250048,3.5 21.25,3.5 C16.7104272,3.5 12.5983639,5.9391361 10.3871665,9.81057513 C9.97629906,10.5299356 9.06006835,10.7800187 8.34070788,10.3691513 C7.6213474,9.95828388 7.37126435,9.04205317 7.78213174,8.32269269 C10.5220985,3.52546655 15.622638,0.5 21.25,0.5 Z" id="Combined-Shape" fill="#206fd8"></path>
                    <g id="Group-3" transform="translate(9.084649, 2.000000)"></g>
                    <g id="Group-3" transform="translate(17.500000, 22.000000) rotate(-180.000000) translate(-17.500000, -22.000000) translate(1.500000, 14.000000)"></g>
                </g>
            </g>
        </g>
    </g>
</svg>