<?xml version="1.0" encoding="UTF-8"?>
<svg width="36px" height="39px" viewBox="0 0 36 39" version="1.1" xmlns="http://www.w3.org/2000/svg" xmlns:xlink="http://www.w3.org/1999/xlink">
    <title>C7874DA4-E463-4CCD-AD99-8D08051ABD55@1x</title>
    <defs>
        <polygon id="path-1" points="0 0.232137931 35.5812828 0.232137931 35.5812828 37.2413793 0 37.2413793"></polygon>
    </defs>
    <g id="Page-1" stroke="none" stroke-width="1" fill="none" fill-rule="evenodd">
        <g id="Pigu.lt---Review-step" transform="translate(-231.000000, -991.000000)">
            <g id="Group-30" transform="translate(220.000000, 978.000000)">
                <g id="Group-76" transform="translate(10.000000, 11.000000)">
                    <g id="Group-12" transform="translate(1.000000, 2.000000)">
                        <path d="M12.5568,11.6065793 L22.7385931,11.6065793 C23.0824552,11.6065793 23.3592828,11.3285103 23.3592828,10.9858897 C23.3592828,10.643269 23.0824552,10.3652 22.7385931,10.3652 L12.5568,10.3652 C12.2141793,10.3652 11.9361103,10.643269 11.9361103,10.9858897 C11.9361103,11.3285103 12.2141793,11.6065793 12.5568,11.6065793" id="Fill-1" fill="#BEBEBE"></path>
                        <path d="M12.5568,15.9041103 L22.7385931,15.9041103 C23.0824552,15.9041103 23.3592828,15.6260414 23.3592828,15.2834207 C23.3592828,14.9408 23.0824552,14.662731 22.7385931,14.662731 L12.5568,14.662731 C12.2141793,14.662731 11.9361103,14.9408 11.9361103,15.2834207 C11.9361103,15.6260414 12.2141793,15.9041103 12.5568,15.9041103" id="Fill-3" fill="#BEBEBE"></path>
                        <path d="M12.5568,20.1046897 L16.5465931,20.1046897 C16.8892138,20.1046897 17.1672828,19.8266207 17.1672828,19.484 C17.1672828,19.1413793 16.8892138,18.8633103 16.5465931,18.8633103 L12.5568,18.8633103 C12.2141793,18.8633103 11.9361103,19.1413793 11.9361103,19.484 C11.9361103,19.8266207 12.2141793,20.1046897 12.5568,20.1046897" id="Fill-5" fill="#BEBEBE"></path>
                        <g id="Group-9" transform="translate(0.000000, 0.009862)">
                            <mask id="mask-2" fill="white">
                                <use xlink:href="#path-1"></use>
                            </mask>
                            <g id="Clip-8"></g>
                            <path d="M27.4788,36 C24.0972828,36 21.2868,33.5395862 20.7256966,30.3157241 C20.6586621,29.9321379 20.6176966,29.5411034 20.6176966,29.1388966 C20.6176966,29.1165517 20.6201793,29.0954483 20.6214207,29.0743448 C20.6536966,25.5289655 23.3859724,22.6216552 26.8581103,22.3088276 C27.0629379,22.2902069 27.2690069,22.2765517 27.4788,22.2765517 C27.6885931,22.2765517 27.8946621,22.2902069 28.0994897,22.3088276 C31.592731,22.6241379 34.3399034,25.5649655 34.3399034,29.1388966 C34.3399034,32.9226207 31.2625241,36 27.4788,36 L27.4788,36 Z M4.41273103,29.0743448 L4.3668,29.0743448 C2.65742069,29.0743448 1.26707586,27.684 1.26707586,25.9746207 C1.26707586,24.2652414 2.65742069,22.8748966 4.3668,22.8748966 L8.28335172,22.8748966 C8.62597241,22.8748966 8.90404138,22.5968276 8.90404138,22.2542069 C8.90404138,22.2070345 8.88666207,22.1648276 8.87797241,22.1213793 L8.87797241,6.36703448 L26.8581103,6.36703448 L26.8581103,21.0674483 C22.700731,21.3852414 19.4123172,24.8449655 19.3800414,29.0743448 L8.28335172,29.0743448 L4.41273103,29.0743448 Z M4.33948966,1.47351724 L7.6365931,1.47351724 L7.6365931,21.6335172 L4.3668,21.6335172 C3.13783448,21.6335172 2.03176552,22.1524138 1.2410069,22.9754483 L1.2410069,4.572 C1.2410069,2.86386207 2.63135172,1.47351724 4.33948966,1.47351724 L4.33948966,1.47351724 Z M28.0994897,21.0674483 L28.0994897,5.74634483 C28.0994897,5.40372414 27.8214207,5.12565517 27.4788,5.12565517 L8.87797241,5.12565517 L8.87797241,0.921103448 C8.87797241,0.908689655 8.87176552,0.898758621 8.87052414,0.886344828 C8.87176552,0.875172414 8.87797241,0.864 8.87797241,0.852827586 C8.87797241,0.508965517 8.59990345,0.232137931 8.25728276,0.232137931 L4.33948966,0.232137931 C1.94735172,0.232137931 -0.000372413793,2.17862069 -0.000372413793,4.572 L-0.000372413793,25.9746207 C-0.000372413793,26.0602759 0.0182482759,26.1434483 0.0492827586,26.217931 C0.179627586,28.4971034 2.0565931,30.3157241 4.3668,30.3157241 L4.41273103,30.3157241 L8.28335172,30.3157241 L19.4719034,30.3157241 C20.0441793,34.226069 23.4120414,37.2413793 27.4788,37.2413793 C31.9477655,37.2413793 35.5812828,33.6066207 35.5812828,29.1388966 C35.5812828,24.8797241 32.2779724,21.3864828 28.0994897,21.0674483 L28.0994897,21.0674483 Z" id="Fill-7" fill="#BEBEBE" mask="url(#mask-2)"></path>
                        </g>
                        <path d="M29.9955724,26.9686483 L26.9541931,30.011269 L26.0268828,29.0839586 L24.9617793,28.0200966 C24.7197103,27.7767862 24.3274345,27.7767862 24.0841241,28.0200966 C23.8420552,28.2621655 23.8420552,28.6544414 24.0841241,28.8977517 L24.2715724,29.0839586 L25.5129517,30.3253379 L26.5147448,31.3283724 C26.6314345,31.4438207 26.7890897,31.5096138 26.9541931,31.5096138 C27.1192966,31.5096138 27.2769517,31.4438207 27.3924,31.3283724 L30.8732276,27.8463034 C31.1152966,27.6042345 31.1152966,27.2107172 30.8732276,26.9686483 C30.6311586,26.7265793 30.2376414,26.7265793 29.9955724,26.9686483" id="Fill-10" fill="#BEBEBE"></path>
                    </g>
                </g>
            </g>
        </g>
    </g>
</svg>